<?xml version="1.0" encoding="iso-8859-1"?>
<!-- Generator: Adobe Illustrator 19.0.0, SVG Export Plug-In . SVG Version: 6.00 Build 0)  -->
<svg version="1.1" id="Capa_1" xmlns="http://www.w3.org/2000/svg" xmlns:xlink="http://www.w3.org/1999/xlink" x="0px" y="0px"
	 viewBox="0 0 480 480" style="enable-background:new 0 0 480 480;" xml:space="preserve">
<g>
	<g>
		<g>
			<path d="M416.992,69.824l-62.64-62.776C349.839,2.55,343.732,0.017,337.36,0H80C66.745,0,56,10.745,56,24v432
				c0,13.255,10.745,24,24,24h320c13.255,0,24-10.745,24-24V86.768C424.014,80.412,421.492,74.313,416.992,69.824z M408,456
				c0,4.418-3.582,8-8,8H80c-4.418,0-8-3.582-8-8V24c0-4.418,3.582-8,8-8h256v56c0,13.255,10.745,24,24,24h32V80h-32
				c-4.418,0-8-3.582-8-8V27.336l53.664,53.784c1.502,1.495,2.343,3.529,2.336,5.648V456z"/>
			<rect x="104" y="48" width="16" height="16"/>
			<rect x="136" y="48" width="160" height="16"/>
			<rect x="104" y="80" width="192" height="16"/>
			<path d="M168,128c-35.346,0-64,28.654-64,64c0,35.346,28.654,64,64,64c35.346,0,64-28.654,64-64
				C231.96,156.67,203.33,128.04,168,128z M168,240c-26.509-0.154-47.875-21.768-47.721-48.277
				c0.134-23.211,16.858-43,39.721-47.003V192c0,4.418,3.582,8,8,8h47.28C211.361,223.066,191.397,239.957,168,240z M176,184v-39.28
				c20.1,3.435,35.845,19.18,39.28,39.28H176z"/>
			<path d="M368,288H256c-4.418,0-8,3.582-8,8v96c0,4.418,3.582,8,8,8h112c4.418,0,8-3.582,8-8v-96C376,291.582,372.418,288,368,288
				z M360,384h-96v-80h96V384z"/>
			<rect x="248" y="136" width="16" height="16"/>
			<rect x="280" y="136" width="96" height="16"/>
			<rect x="248" y="168" width="128" height="16"/>
			<rect x="248" y="200" width="128" height="16"/>
			<rect x="248" y="232" width="128" height="16"/>
			<rect x="104" y="288" width="16" height="16"/>
			<rect x="136" y="288" width="96" height="16"/>
			<rect x="104" y="320" width="128" height="16"/>
			<rect x="104" y="352" width="128" height="16"/>
			<rect x="104" y="384" width="128" height="16"/>
			<path d="M292.056,348.504l5.288,7.936c1.569,2.387,4.303,3.742,7.152,3.544c2.849-0.175,5.388-1.855,6.664-4.408l1.832-3.672
				l8.352,12.536c2.45,3.677,7.417,4.671,11.094,2.221c1.349-0.899,2.394-2.187,2.995-3.693l16-40l-14.864-5.936l-10.352,25.872
				l-7.56-11.344c-2.45-3.677-7.417-4.672-11.093-2.222c-1.161,0.774-2.1,1.837-2.723,3.086l-1.832,3.672l-8.352-12.536
				c-2.454-3.674-7.422-4.662-11.096-2.208c-1.761,1.177-2.984,3.003-3.4,5.08l-8,40l15.68,3.136L292.056,348.504z"/>
		</g>
	</g>
</g>
<g>
</g>
<g>
</g>
<g>
</g>
<g>
</g>
<g>
</g>
<g>
</g>
<g>
</g>
<g>
</g>
<g>
</g>
<g>
</g>
<g>
</g>
<g>
</g>
<g>
</g>
<g>
</g>
<g>
</g>
</svg>
